# xmcd
#
# Track frame offsets:
#	150
#	10153
#	21436
#	38436
#	58033
#	73187
#	90424
#	106107
#	123935
#	141943
#	161901
#	177208
#	193383
#	210063
#
# Disc length: 2914 seconds
#
# Revision: 0
# Processed by: cddbd v1.5.2PL0 Copyright (c) Steve Scherf et al.
# Submitted via: dBpowerAMP V4.0
#
DISCID=b90b600e
DTITLE=fuck u - country musiuc
DYEAR=2002
DGENRE=Country
TTITLE0=hhgh
TTITLE1=hghd
TTITLE2=hghgdf
TTITLE3=hgfhfh
TTITLE4=ghfhfg
TTITLE5=gfhf
TTITLE6=hgdh
TTITLE7=gfhf
TTITLE8=hghgfd
TTITLE9=gfhfd
TTITLE10=Tracktghg11
TTITLE11=Track1gfhgfh2
TTITLE12=Trachgfhk13
TTITLE13=Track1hgfdh4
EXTD=Kenny Chesney\n
EXTT0=
EXTT1=
EXTT2=
EXTT3=
EXTT4=
EXTT5=
EXTT6=
EXTT7=
EXTT8=
EXTT9=
EXTT10=
EXTT11=
EXTT12=
EXTT13=
PLAYORDER=
